<svg width="178" height="30" viewBox="0 0 178 30" fill="none" xmlns="http://www.w3.org/2000/svg">
<path opacity="0.2" d="M28.9285 14.9812C28.9327 16.5348 28.5145 18.0604 27.7187 19.3947C26.9228 20.7291 25.7793 21.822 24.4104 22.5567C23.0414 23.2914 21.4985 23.6402 19.9467 23.5658C18.3948 23.4914 16.8924 22.9966 15.6 22.1343C15.4222 22.0134 15.2122 21.9487 14.9973 21.9487C14.7823 21.9487 14.5723 22.0134 14.3946 22.1343C13.4111 22.7941 12.3016 23.2429 11.1359 23.4524C9.97031 23.6619 8.77391 23.6276 7.62221 23.3517C6.47051 23.0757 5.38849 22.5641 4.4444 21.849C3.50032 21.134 2.71466 20.2311 2.13697 19.1972C1.55929 18.1634 1.20212 17.021 1.08799 15.8422C0.973861 14.6634 1.10525 13.4738 1.47388 12.3483C1.8425 11.2228 2.44036 10.186 3.22973 9.30309C4.01911 8.42022 4.98288 7.71051 6.06025 7.21873C6.30217 7.10582 6.49321 6.90666 6.59597 6.66025C7.28949 5.00458 8.45683 3.59077 9.95134 2.59645C11.4459 1.60214 13.2009 1.07166 14.9959 1.07166C16.791 1.07166 18.546 1.60214 20.0405 2.59645C21.5351 3.59077 22.7024 5.00458 23.3959 6.66025C23.4987 6.90666 23.6897 7.10582 23.9316 7.21873C25.4184 7.90092 26.679 8.99431 27.5644 10.3698C28.4498 11.7453 28.9231 13.3454 28.9285 14.9812Z" fill="#0BCF7D"/>
<path d="M24.3884 6.24646C23.6133 4.3959 22.3086 2.81567 20.6383 1.7043C18.9679 0.592931 17.0063 0 15 0C12.9937 0 11.0321 0.592931 9.36174 1.7043C7.69137 2.81567 6.38669 4.3959 5.61163 6.24646C3.94384 7.01914 2.53046 8.25063 1.53674 9.79695C0.54302 11.3433 0.0100147 13.1405 3.85035e-05 14.9786C-0.0146936 20.1777 4.20003 24.5143 9.39376 24.6482C10.9649 24.6892 12.5221 24.3438 13.9286 23.6424V28.9339C13.9286 29.2181 14.0415 29.4906 14.2424 29.6915C14.4433 29.8924 14.7158 30.0053 15 30.0053C15.2842 30.0053 15.5567 29.8924 15.7576 29.6915C15.9585 29.4906 16.0714 29.2181 16.0714 28.9339V23.6424C17.4024 24.3062 18.8698 24.6505 20.3571 24.6482H20.6062C25.8 24.5143 30.0147 20.1803 30 14.9813C29.991 13.1426 29.4584 11.3446 28.4646 9.79768C27.4708 8.25075 26.0569 7.01894 24.3884 6.24646ZM20.5513 22.5053C19.0041 22.5477 17.482 22.1077 16.196 21.2464C16.154 21.2196 16.1125 21.1942 16.0714 21.1701V15.667L21.908 12.75C22.0339 12.687 22.1462 12.5999 22.2385 12.4935C22.3307 12.3872 22.4011 12.2637 22.4456 12.1301C22.4902 11.9966 22.508 11.8555 22.498 11.7151C22.488 11.5746 22.4504 11.4376 22.3875 11.3116C22.3245 11.1857 22.2374 11.0734 22.131 10.9812C22.0246 10.8889 21.9012 10.8185 21.7676 10.774C21.634 10.7295 21.493 10.7117 21.3526 10.7217C21.2121 10.7317 21.075 10.7692 20.9491 10.8322L16.0714 13.2723V9.64823C16.0714 9.36407 15.9585 9.09155 15.7576 8.89062C15.5567 8.68969 15.2842 8.57681 15 8.57681C14.7158 8.57681 14.4433 8.68969 14.2424 8.89062C14.0415 9.09155 13.9286 9.36407 13.9286 9.64823V16.4866L9.05091 14.0464C8.79659 13.9193 8.50216 13.8984 8.23241 13.9883C7.96266 14.0782 7.73968 14.2716 7.61252 14.5259C7.48536 14.7802 7.46443 15.0746 7.55435 15.3444C7.64427 15.6141 7.83766 15.8371 8.09198 15.9643L13.9286 18.8812V21.1661C13.8871 21.1902 13.8455 21.2156 13.8054 21.2424C12.5193 22.1052 10.9968 22.5465 9.44868 22.5053C7.75479 22.463 6.12514 21.8484 4.82522 20.7615C3.5253 19.6747 2.63172 18.1797 2.29004 16.5201C1.94836 14.8604 2.17873 13.134 2.94362 11.6221C3.70851 10.1101 4.96283 8.90175 6.50225 8.19377C6.98913 7.9707 7.37407 7.57236 7.58038 7.07815C8.19195 5.61654 9.22195 4.36835 10.5409 3.49047C11.8599 2.61259 13.4089 2.14421 14.9933 2.14421C16.5777 2.14421 18.1267 2.61259 19.4457 3.49047C20.7647 4.36835 21.7947 5.61654 22.4062 7.07815C22.6125 7.57236 22.9975 7.9707 23.4844 8.19377C25.0238 8.90175 26.2781 10.1101 27.043 11.6221C27.8079 13.134 28.0382 14.8604 27.6966 16.5201C27.3549 18.1797 26.4613 19.6747 25.1614 20.7615C23.8615 21.8484 22.2318 22.463 20.5379 22.5053H20.5513Z" fill="#0BCF7D"/>
<path d="M48.96 24.4481C47.0186 24.4481 45.376 24.0001 44.032 23.1041C42.7093 22.2081 41.9093 20.7894 41.632 18.8481L44.032 18.3041C44.2026 19.3281 44.5226 20.1387 44.992 20.7361C45.4613 21.3121 46.0373 21.7281 46.72 21.9841C47.424 22.2187 48.1706 22.3361 48.96 22.3361C50.1333 22.3361 51.0613 22.1014 51.744 21.6321C52.4266 21.1627 52.768 20.5334 52.768 19.7441C52.768 18.9334 52.4373 18.3681 51.776 18.0481C51.136 17.7067 50.2506 17.4294 49.12 17.2161L47.808 16.9921C46.8053 16.8214 45.888 16.5547 45.056 16.1921C44.224 15.8294 43.5626 15.3387 43.072 14.7201C42.5813 14.1014 42.336 13.3227 42.336 12.3841C42.336 10.9761 42.88 9.87739 43.968 9.08806C45.056 8.29873 46.496 7.90406 48.288 7.90406C50.0586 7.90406 51.488 8.30939 52.576 9.12006C53.6853 9.90939 54.4 11.0294 54.72 12.4801L52.352 13.0881C52.16 11.9574 51.7013 11.1681 50.976 10.7201C50.2506 10.2507 49.3546 10.0161 48.288 10.0161C47.2213 10.0161 46.3786 10.2187 45.76 10.6241C45.1413 11.0081 44.832 11.5841 44.832 12.3521C44.832 13.0987 45.12 13.6534 45.696 14.0161C46.2933 14.3574 47.0826 14.6134 48.064 14.7841L49.376 15.0081C50.4853 15.2001 51.4773 15.4667 52.352 15.8081C53.248 16.1281 53.952 16.5974 54.464 17.2161C54.9973 17.8347 55.264 18.6454 55.264 19.6481C55.264 21.1841 54.688 22.3681 53.536 23.2001C52.4053 24.0321 50.88 24.4481 48.96 24.4481Z" fill="#FAFAFA"/>
<path d="M59.531 24.0001V8.35206H61.995V10.3041H62.443C62.7416 9.74939 63.2323 9.23739 63.915 8.76806C64.5976 8.29873 65.5576 8.06406 66.795 8.06406C68.011 8.06406 68.9923 8.33073 69.739 8.86406C70.507 9.39739 71.0616 10.0481 71.403 10.8161H71.851C72.2136 10.0481 72.7576 9.39739 73.483 8.86406C74.2296 8.33073 75.2643 8.06406 76.587 8.06406C77.6323 8.06406 78.5496 8.27739 79.339 8.70406C80.1283 9.13072 80.747 9.74939 81.195 10.5601C81.6643 11.3494 81.899 12.2987 81.899 13.4081V24.0001H79.371V13.6321C79.371 12.5867 79.0616 11.7654 78.443 11.1681C77.8456 10.5494 77.003 10.2401 75.915 10.2401C74.763 10.2401 73.8136 10.6134 73.067 11.3601C72.3416 12.1067 71.979 13.1841 71.979 14.5921V24.0001H69.451V13.6321C69.451 12.5867 69.1416 11.7654 68.523 11.1681C67.9256 10.5494 67.083 10.2401 65.995 10.2401C64.843 10.2401 63.8936 10.6134 63.147 11.3601C62.4216 12.1067 62.059 13.1841 62.059 14.5921V24.0001H59.531Z" fill="#FAFAFA"/>
<path d="M93.3662 24.4481C91.4249 24.4481 89.7822 24.0001 88.4382 23.1041C87.1155 22.2081 86.3155 20.7894 86.0382 18.8481L88.4382 18.3041C88.6089 19.3281 88.9289 20.1387 89.3982 20.7361C89.8675 21.3121 90.4435 21.7281 91.1262 21.9841C91.8302 22.2187 92.5769 22.3361 93.3662 22.3361C94.5395 22.3361 95.4675 22.1014 96.1502 21.6321C96.8329 21.1627 97.1742 20.5334 97.1742 19.7441C97.1742 18.9334 96.8435 18.3681 96.1822 18.0481C95.5422 17.7067 94.6569 17.4294 93.5262 17.2161L92.2142 16.9921C91.2115 16.8214 90.2942 16.5547 89.4622 16.1921C88.6302 15.8294 87.9689 15.3387 87.4782 14.7201C86.9875 14.1014 86.7422 13.3227 86.7422 12.3841C86.7422 10.9761 87.2862 9.87739 88.3742 9.08806C89.4622 8.29873 90.9022 7.90406 92.6942 7.90406C94.4649 7.90406 95.8942 8.30939 96.9822 9.12006C98.0915 9.90939 98.8062 11.0294 99.1262 12.4801L96.7582 13.0881C96.5662 11.9574 96.1075 11.1681 95.3822 10.7201C94.6569 10.2507 93.7609 10.0161 92.6942 10.0161C91.6275 10.0161 90.7849 10.2187 90.1662 10.6241C89.5475 11.0081 89.2382 11.5841 89.2382 12.3521C89.2382 13.0987 89.5262 13.6534 90.1022 14.0161C90.6995 14.3574 91.4889 14.6134 92.4702 14.7841L93.7822 15.0081C94.8915 15.2001 95.8835 15.4667 96.7582 15.8081C97.6542 16.1281 98.3582 16.5974 98.8702 17.2161C99.4035 17.8347 99.6702 18.6454 99.6702 19.6481C99.6702 21.1841 99.0942 22.3681 97.9422 23.2001C96.8115 24.0321 95.2862 24.4481 93.3662 24.4481Z" fill="#FAFAFA"/>
<path d="M103.809 16.9281V14.5921H113.281V16.9281H103.809Z" fill="#FAFAFA"/>
<path d="M123.385 24.0001C122.489 24.0001 121.795 23.7547 121.305 23.2641C120.835 22.7734 120.601 22.1014 120.601 21.2481V10.5601H115.897V8.35206H120.601V2.78406H123.129V8.35206H128.249V10.5601H123.129V20.8641C123.129 21.5041 123.438 21.8241 124.057 21.8241H127.545V24.0001H123.385Z" fill="#FAFAFA"/>
<path d="M132.343 24.0001V8.35206H134.807V10.2721H135.255C135.533 9.58939 135.959 9.08806 136.535 8.76806C137.111 8.44806 137.869 8.28806 138.807 8.28806H140.663V10.5921H138.647C137.517 10.5921 136.599 10.9121 135.895 11.5521C135.213 12.1707 134.871 13.1414 134.871 14.4641V24.0001H132.343Z" fill="#FAFAFA"/>
<path d="M151.011 24.4481C149.433 24.4481 148.046 24.1174 146.851 23.4561C145.657 22.7734 144.729 21.8241 144.067 20.6081C143.406 19.3921 143.075 17.9841 143.075 16.3841V16.0001C143.075 14.3787 143.406 12.9601 144.067 11.7441C144.729 10.5281 145.646 9.58939 146.819 8.92806C147.993 8.24539 149.337 7.90406 150.851 7.90406C152.323 7.90406 153.625 8.22406 154.755 8.86406C155.886 9.48272 156.771 10.3787 157.411 11.5521C158.051 12.7254 158.371 14.1014 158.371 15.6801V16.8321H145.603C145.667 18.5174 146.211 19.8401 147.235 20.8001C148.259 21.7387 149.539 22.2081 151.075 22.2081C152.419 22.2081 153.454 21.8987 154.179 21.2801C154.905 20.6614 155.459 19.9254 155.843 19.0721L158.019 20.1281C157.699 20.7894 157.251 21.4507 156.675 22.1121C156.121 22.7734 155.385 23.3281 154.467 23.7761C153.571 24.2241 152.419 24.4481 151.011 24.4481ZM145.635 14.7521H155.811C155.726 13.3014 155.225 12.1707 154.307 11.3601C153.411 10.5494 152.259 10.1441 150.851 10.1441C149.422 10.1441 148.249 10.5494 147.331 11.3601C146.414 12.1707 145.849 13.3014 145.635 14.7521Z" fill="#FAFAFA"/>
<path d="M169.949 24.4481C168.37 24.4481 166.984 24.1174 165.789 23.4561C164.594 22.7734 163.666 21.8241 163.005 20.6081C162.344 19.3921 162.013 17.9841 162.013 16.3841V16.0001C162.013 14.3787 162.344 12.9601 163.005 11.7441C163.666 10.5281 164.584 9.58939 165.757 8.92806C166.93 8.24539 168.274 7.90406 169.789 7.90406C171.261 7.90406 172.562 8.22406 173.693 8.86406C174.824 9.48272 175.709 10.3787 176.349 11.5521C176.989 12.7254 177.309 14.1014 177.309 15.6801V16.8321H164.541C164.605 18.5174 165.149 19.8401 166.173 20.8001C167.197 21.7387 168.477 22.2081 170.013 22.2081C171.357 22.2081 172.392 21.8987 173.117 21.2801C173.842 20.6614 174.397 19.9254 174.781 19.0721L176.957 20.1281C176.637 20.7894 176.189 21.4507 175.613 22.1121C175.058 22.7734 174.322 23.3281 173.405 23.7761C172.509 24.2241 171.357 24.4481 169.949 24.4481ZM164.573 14.7521H174.749C174.664 13.3014 174.162 12.1707 173.245 11.3601C172.349 10.5494 171.197 10.1441 169.789 10.1441C168.36 10.1441 167.186 10.5494 166.269 11.3601C165.352 12.1707 164.786 13.3014 164.573 14.7521Z" fill="#FAFAFA"/>
</svg>
