<svg width="178" height="30" viewBox="0 0 178 30" fill="none" xmlns="http://www.w3.org/2000/svg">
  <path opacity="0.2" d="M28.9273 14.9818C28.9314 16.5355 28.5133 18.061 27.7174 19.3953C26.9216 20.7297 25.7781 21.8226 24.4091 22.5573C23.0402 23.292 21.4973 23.6408 19.9454 23.5664C18.3936 23.492 16.8911 22.9972 15.5987 22.1349C15.421 22.014 15.211 21.9494 14.9961 21.9494C14.7811 21.9494 14.5711 22.014 14.3934 22.1349C13.4099 22.7947 12.3003 23.2435 11.1347 23.453C9.96909 23.6626 8.77269 23.6282 7.62099 23.3523C6.46929 23.0763 5.38727 22.5647 4.44318 21.8496C3.4991 21.1346 2.71344 20.2317 2.13575 19.1978C1.55807 18.164 1.2009 17.0216 1.08677 15.8428C0.97264 14.664 1.10403 13.4744 1.47266 12.3489C1.84128 11.2234 2.43914 10.1866 3.22851 9.3037C4.01789 8.42083 4.98166 7.71112 6.05903 7.21935C6.30095 7.10643 6.49199 6.90727 6.59475 6.66086C7.28826 5.00519 8.45561 3.59138 9.95012 2.59706C11.4446 1.60275 13.1997 1.07227 14.9947 1.07227C16.7898 1.07227 18.5448 1.60275 20.0393 2.59706C21.5338 3.59138 22.7012 5.00519 23.3947 6.66086C23.4975 6.90727 23.6885 7.10643 23.9304 7.21935C25.4172 7.90153 26.6777 8.99492 27.5632 10.3704C28.4486 11.7459 28.9219 13.346 28.9273 14.9818Z" fill="#0BCF7D"/>
  <path d="M24.3884 6.24646C23.6133 4.3959 22.3086 2.81567 20.6383 1.7043C18.9679 0.592931 17.0063 0 15 0C12.9937 0 11.0321 0.592931 9.36174 1.7043C7.69137 2.81567 6.38669 4.3959 5.61163 6.24646C3.94384 7.01914 2.53046 8.25063 1.53674 9.79695C0.54302 11.3433 0.0100147 13.1405 3.85035e-05 14.9786C-0.0146936 20.1777 4.20003 24.5143 9.39376 24.6482C10.9649 24.6892 12.5221 24.3438 13.9286 23.6424V28.9339C13.9286 29.2181 14.0415 29.4906 14.2424 29.6915C14.4433 29.8924 14.7158 30.0053 15 30.0053C15.2842 30.0053 15.5567 29.8924 15.7576 29.6915C15.9585 29.4906 16.0714 29.2181 16.0714 28.9339V23.6424C17.4024 24.3062 18.8698 24.6505 20.3571 24.6482H20.6062C25.8 24.5143 30.0147 20.1803 30 14.9813C29.991 13.1426 29.4584 11.3446 28.4646 9.79768C27.4708 8.25075 26.0569 7.01894 24.3884 6.24646ZM20.5513 22.5053C19.0041 22.5477 17.482 22.1077 16.196 21.2464C16.154 21.2196 16.1125 21.1942 16.0714 21.1701V15.667L21.908 12.75C22.0339 12.687 22.1462 12.5999 22.2385 12.4935C22.3307 12.3872 22.4011 12.2637 22.4456 12.1301C22.4902 11.9966 22.508 11.8555 22.498 11.7151C22.488 11.5746 22.4504 11.4376 22.3875 11.3116C22.3245 11.1857 22.2374 11.0734 22.131 10.9812C22.0246 10.8889 21.9012 10.8185 21.7676 10.774C21.634 10.7295 21.493 10.7117 21.3526 10.7217C21.2121 10.7317 21.075 10.7692 20.9491 10.8322L16.0714 13.2723V9.64823C16.0714 9.36407 15.9585 9.09155 15.7576 8.89062C15.5567 8.68969 15.2842 8.57681 15 8.57681C14.7158 8.57681 14.4433 8.68969 14.2424 8.89062C14.0415 9.09155 13.9286 9.36407 13.9286 9.64823V16.4866L9.05091 14.0464C8.79659 13.9193 8.50216 13.8984 8.23241 13.9883C7.96266 14.0782 7.73968 14.2716 7.61252 14.5259C7.48536 14.7802 7.46443 15.0746 7.55435 15.3444C7.64427 15.6141 7.83766 15.8371 8.09198 15.9643L13.9286 18.8812V21.1661C13.8871 21.1902 13.8455 21.2156 13.8054 21.2424C12.5193 22.1052 10.9968 22.5465 9.44868 22.5053C7.75479 22.463 6.12514 21.8484 4.82522 20.7615C3.5253 19.6747 2.63172 18.1797 2.29004 16.5201C1.94836 14.8604 2.17873 13.134 2.94362 11.6221C3.70851 10.1101 4.96283 8.90175 6.50225 8.19377C6.98913 7.9707 7.37407 7.57236 7.58038 7.07815C8.19195 5.61654 9.22195 4.36835 10.5409 3.49047C11.8599 2.61259 13.4089 2.14421 14.9933 2.14421C16.5777 2.14421 18.1267 2.61259 19.4457 3.49047C20.7647 4.36835 21.7947 5.61654 22.4062 7.07815C22.6125 7.57236 22.9975 7.9707 23.4844 8.19377C25.0238 8.90175 26.2781 10.1101 27.043 11.6221C27.8079 13.134 28.0382 14.8604 27.6966 16.5201C27.3549 18.1797 26.4613 19.6747 25.1614 20.7615C23.8615 21.8484 22.2318 22.463 20.5379 22.5053H20.5513Z" fill="#0BCF7D"/>
  <path d="M48.9608 24.4472C47.0195 24.4472 45.3768 23.9992 44.0328 23.1032C42.7101 22.2072 41.9101 20.7885 41.6328 18.8472L44.0328 18.3032C44.2035 19.3272 44.5235 20.1379 44.9928 20.7352C45.4621 21.3112 46.0381 21.7272 46.7208 21.9832C47.4248 22.2179 48.1715 22.3352 48.9608 22.3352C50.1341 22.3352 51.0621 22.1005 51.7448 21.6312C52.4275 21.1619 52.7688 20.5325 52.7688 19.7432C52.7688 18.9325 52.4381 18.3672 51.7768 18.0472C51.1368 17.7059 50.2515 17.4285 49.1208 17.2152L47.8088 16.9912C46.8061 16.8205 45.8888 16.5539 45.0568 16.1912C44.2248 15.8285 43.5635 15.3379 43.0728 14.7192C42.5821 14.1005 42.3368 13.3219 42.3368 12.3832C42.3368 10.9752 42.8808 9.87654 43.9688 9.0872C45.0568 8.29787 46.4968 7.9032 48.2888 7.9032C50.0595 7.9032 51.4888 8.30854 52.5768 9.1192C53.6861 9.90854 54.4008 11.0285 54.7208 12.4792L52.3528 13.0872C52.1608 11.9565 51.7021 11.1672 50.9768 10.7192C50.2515 10.2499 49.3555 10.0152 48.2888 10.0152C47.2221 10.0152 46.3795 10.2179 45.7608 10.6232C45.1421 11.0072 44.8328 11.5832 44.8328 12.3512C44.8328 13.0979 45.1208 13.6525 45.6968 14.0152C46.2941 14.3565 47.0835 14.6125 48.0648 14.7832L49.3768 15.0072C50.4861 15.1992 51.4781 15.4659 52.3528 15.8072C53.2488 16.1272 53.9528 16.5965 54.4648 17.2152C54.9981 17.8339 55.2648 18.6445 55.2648 19.6472C55.2648 21.1832 54.6888 22.3672 53.5368 23.1992C52.4061 24.0312 50.8808 24.4472 48.9608 24.4472Z" fill="#FAFAFA"/>
  <path d="M59.5318 23.9992V8.3512H61.9958V10.3032H62.4438C62.7425 9.74854 63.2331 9.23654 63.9158 8.7672C64.5985 8.29787 65.5585 8.0632 66.7958 8.0632C68.0118 8.0632 68.9931 8.32987 69.7398 8.8632C70.5078 9.39654 71.0625 10.0472 71.4038 10.8152H71.8518C72.2145 10.0472 72.7585 9.39654 73.4838 8.8632C74.2305 8.32987 75.2651 8.0632 76.5878 8.0632C77.6331 8.0632 78.5505 8.27654 79.3398 8.7032C80.1291 9.12987 80.7478 9.74854 81.1958 10.5592C81.6651 11.3485 81.8998 12.2979 81.8998 13.4072V23.9992H79.3718V13.6312C79.3718 12.5859 79.0625 11.7645 78.4438 11.1672C77.8465 10.5485 77.0038 10.2392 75.9158 10.2392C74.7638 10.2392 73.8145 10.6125 73.0678 11.3592C72.3425 12.1059 71.9798 13.1832 71.9798 14.5912V23.9992H69.4518V13.6312C69.4518 12.5859 69.1425 11.7645 68.5238 11.1672C67.9265 10.5485 67.0838 10.2392 65.9958 10.2392C64.8438 10.2392 63.8945 10.6125 63.1478 11.3592C62.4225 12.1059 62.0598 13.1832 62.0598 14.5912V23.9992H59.5318Z" fill="#FAFAFA"/>
  <path d="M93.3671 24.4472C91.4257 24.4472 89.7831 23.9992 88.4391 23.1032C87.1164 22.2072 86.3164 20.7885 86.0391 18.8472L88.4391 18.3032C88.6097 19.3272 88.9297 20.1379 89.3991 20.7352C89.8684 21.3112 90.4444 21.7272 91.1271 21.9832C91.8311 22.2179 92.5777 22.3352 93.3671 22.3352C94.5404 22.3352 95.4684 22.1005 96.1511 21.6312C96.8337 21.1619 97.1751 20.5325 97.1751 19.7432C97.1751 18.9325 96.8444 18.3672 96.1831 18.0472C95.5431 17.7059 94.6577 17.4285 93.5271 17.2152L92.2151 16.9912C91.2124 16.8205 90.2951 16.5539 89.4631 16.1912C88.6311 15.8285 87.9697 15.3379 87.4791 14.7192C86.9884 14.1005 86.7431 13.3219 86.7431 12.3832C86.7431 10.9752 87.2871 9.87654 88.3751 9.0872C89.4631 8.29787 90.9031 7.9032 92.6951 7.9032C94.4657 7.9032 95.8951 8.30854 96.9831 9.1192C98.0924 9.90854 98.8071 11.0285 99.1271 12.4792L96.7591 13.0872C96.5671 11.9565 96.1084 11.1672 95.3831 10.7192C94.6577 10.2499 93.7617 10.0152 92.6951 10.0152C91.6284 10.0152 90.7857 10.2179 90.1671 10.6232C89.5484 11.0072 89.2391 11.5832 89.2391 12.3512C89.2391 13.0979 89.5271 13.6525 90.1031 14.0152C90.7004 14.3565 91.4897 14.6125 92.4711 14.7832L93.7831 15.0072C94.8924 15.1992 95.8844 15.4659 96.7591 15.8072C97.6551 16.1272 98.3591 16.5965 98.8711 17.2152C99.4044 17.8339 99.6711 18.6445 99.6711 19.6472C99.6711 21.1832 99.0951 22.3672 97.9431 23.1992C96.8124 24.0312 95.2871 24.4472 93.3671 24.4472Z" fill="#FAFAFA"/>
  <path d="M103.81 16.9272V14.5912H113.282V16.9272H103.81Z" fill="#FAFAFA"/>
  <path d="M123.386 23.9992C122.49 23.9992 121.796 23.7539 121.306 23.2632C120.836 22.7725 120.602 22.1005 120.602 21.2472V10.5592H115.898V8.3512H120.602V2.7832H123.13V8.3512H128.25V10.5592H123.13V20.8632C123.13 21.5032 123.439 21.8232 124.058 21.8232H127.546V23.9992H123.386Z" fill="#FAFAFA"/>
  <path d="M132.344 23.9992V8.3512H134.808V10.2712H135.256C135.534 9.58854 135.96 9.0872 136.536 8.7672C137.112 8.4472 137.87 8.2872 138.808 8.2872H140.664V10.5912H138.648C137.518 10.5912 136.6 10.9112 135.896 11.5512C135.214 12.1699 134.872 13.1405 134.872 14.4632V23.9992H132.344Z" fill="#FAFAFA"/>
  <path d="M151.012 24.4472C149.434 24.4472 148.047 24.1165 146.852 23.4552C145.658 22.7725 144.73 21.8232 144.068 20.6072C143.407 19.3912 143.076 17.9832 143.076 16.3832V15.9992C143.076 14.3779 143.407 12.9592 144.068 11.7432C144.73 10.5272 145.647 9.58854 146.82 8.9272C147.994 8.24454 149.338 7.9032 150.852 7.9032C152.324 7.9032 153.626 8.2232 154.756 8.8632C155.887 9.48187 156.772 10.3779 157.412 11.5512C158.052 12.7245 158.372 14.1005 158.372 15.6792V16.8312H145.604C145.668 18.5165 146.212 19.8392 147.236 20.7992C148.26 21.7379 149.54 22.2072 151.076 22.2072C152.42 22.2072 153.455 21.8979 154.18 21.2792C154.906 20.6605 155.46 19.9245 155.844 19.0712L158.02 20.1272C157.7 20.7885 157.252 21.4499 156.676 22.1112C156.122 22.7725 155.386 23.3272 154.468 23.7752C153.572 24.2232 152.42 24.4472 151.012 24.4472ZM145.636 14.7512H155.812C155.727 13.3005 155.226 12.1699 154.308 11.3592C153.412 10.5485 152.26 10.1432 150.852 10.1432C149.423 10.1432 148.25 10.5485 147.332 11.3592C146.415 12.1699 145.85 13.3005 145.636 14.7512Z" fill="#FAFAFA"/>
  <path d="M169.95 24.4472C168.371 24.4472 166.984 24.1165 165.79 23.4552C164.595 22.7725 163.667 21.8232 163.006 20.6072C162.344 19.3912 162.014 17.9832 162.014 16.3832V15.9992C162.014 14.3779 162.344 12.9592 163.006 11.7432C163.667 10.5272 164.584 9.58854 165.758 8.9272C166.931 8.24454 168.275 7.9032 169.79 7.9032C171.262 7.9032 172.563 8.2232 173.694 8.8632C174.824 9.48187 175.71 10.3779 176.35 11.5512C176.99 12.7245 177.31 14.1005 177.31 15.6792V16.8312H164.542C164.606 18.5165 165.15 19.8392 166.174 20.7992C167.198 21.7379 168.478 22.2072 170.014 22.2072C171.358 22.2072 172.392 21.8979 173.118 21.2792C173.843 20.6605 174.398 19.9245 174.782 19.0712L176.958 20.1272C176.638 20.7885 176.19 21.4499 175.614 22.1112C175.059 22.7725 174.323 23.3272 173.406 23.7752C172.51 24.2232 171.358 24.4472 169.95 24.4472ZM164.574 14.7512H174.75C174.664 13.3005 174.163 12.1699 173.246 11.3592C172.35 10.5485 171.198 10.1432 169.79 10.1432C168.36 10.1432 167.187 10.5485 166.27 11.3592C165.352 12.1699 164.787 13.3005 164.574 14.7512Z" fill="#FAFAFA"/>
</svg>