<svg width="180" height="41" viewBox="0 0 180 41" fill="none" xmlns="http://www.w3.org/2000/svg">
<path opacity="0.2" d="M28.9273 22.9818C28.9314 24.5355 28.5133 26.061 27.7174 27.3953C26.9216 28.7297 25.7781 29.8226 24.4091 30.5573C23.0402 31.292 21.4973 31.6408 19.9454 31.5664C18.3936 31.492 16.8911 30.9972 15.5987 30.1349C15.421 30.014 15.211 29.9494 14.9961 29.9494C14.7811 29.9494 14.5711 30.014 14.3934 30.1349C13.4099 30.7947 12.3003 31.2435 11.1347 31.453C9.96909 31.6626 8.77269 31.6282 7.62099 31.3523C6.46929 31.0763 5.38727 30.5647 4.44318 29.8496C3.4991 29.1346 2.71344 28.2317 2.13575 27.1978C1.55807 26.164 1.2009 25.0216 1.08677 23.8428C0.97264 22.664 1.10403 21.4744 1.47266 20.3489C1.84128 19.2234 2.43914 18.1866 3.22851 17.3037C4.01789 16.4208 4.98166 15.7111 6.05903 15.2193C6.30095 15.1064 6.49199 14.9073 6.59475 14.6609C7.28826 13.0052 8.45561 11.5914 9.95012 10.5971C11.4446 9.60275 13.1997 9.07227 14.9947 9.07227C16.7898 9.07227 18.5448 9.60275 20.0393 10.5971C21.5338 11.5914 22.7012 13.0052 23.3947 14.6609C23.4975 14.9073 23.6885 15.1064 23.9304 15.2193C25.4172 15.9015 26.6777 16.9949 27.5632 18.3704C28.4486 19.7459 28.9219 21.346 28.9273 22.9818Z" fill="#0BCF7D"/>
<path d="M24.3884 14.2465C23.6133 12.3959 22.3086 10.8157 20.6383 9.7043C18.9679 8.59293 17.0063 8 15 8C12.9937 8 11.0321 8.59293 9.36174 9.7043C7.69137 10.8157 6.38669 12.3959 5.61163 14.2465C3.94384 15.0191 2.53046 16.2506 1.53674 17.7969C0.54302 19.3433 0.0100147 21.1405 3.85035e-05 22.9786C-0.0146936 28.1777 4.20003 32.5143 9.39376 32.6482C10.9649 32.6892 12.5221 32.3438 13.9286 31.6424V36.9339C13.9286 37.2181 14.0415 37.4906 14.2424 37.6915C14.4433 37.8924 14.7158 38.0053 15 38.0053C15.2842 38.0053 15.5567 37.8924 15.7576 37.6915C15.9585 37.4906 16.0714 37.2181 16.0714 36.9339V31.6424C17.4024 32.3062 18.8698 32.6505 20.3571 32.6482H20.6062C25.8 32.5143 30.0147 28.1803 30 22.9813C29.991 21.1426 29.4584 19.3446 28.4646 17.7977C27.4708 16.2508 26.0569 15.0189 24.3884 14.2465ZM20.5513 30.5053C19.0041 30.5477 17.482 30.1077 16.196 29.2464C16.154 29.2196 16.1125 29.1942 16.0714 29.1701V23.667L21.908 20.75C22.0339 20.687 22.1462 20.5999 22.2385 20.4935C22.3307 20.3872 22.4011 20.2637 22.4456 20.1301C22.4902 19.9966 22.508 19.8555 22.498 19.7151C22.488 19.5746 22.4504 19.4376 22.3875 19.3116C22.3245 19.1857 22.2374 19.0734 22.131 18.9812C22.0246 18.8889 21.9012 18.8185 21.7676 18.774C21.634 18.7295 21.493 18.7117 21.3526 18.7217C21.2121 18.7317 21.075 18.7692 20.9491 18.8322L16.0714 21.2723V17.6482C16.0714 17.3641 15.9585 17.0916 15.7576 16.8906C15.5567 16.6897 15.2842 16.5768 15 16.5768C14.7158 16.5768 14.4433 16.6897 14.2424 16.8906C14.0415 17.0916 13.9286 17.3641 13.9286 17.6482V24.4866L9.05091 22.0464C8.79659 21.9193 8.50216 21.8984 8.23241 21.9883C7.96266 22.0782 7.73968 22.2716 7.61252 22.5259C7.48536 22.7802 7.46443 23.0746 7.55435 23.3444C7.64427 23.6141 7.83766 23.8371 8.09198 23.9643L13.9286 26.8812V29.1661C13.8871 29.1902 13.8455 29.2156 13.8054 29.2424C12.5193 30.1052 10.9968 30.5465 9.44868 30.5053C7.75479 30.463 6.12514 29.8484 4.82522 28.7615C3.5253 27.6747 2.63172 26.1797 2.29004 24.5201C1.94836 22.8604 2.17873 21.134 2.94362 19.6221C3.70851 18.1101 4.96283 16.9017 6.50225 16.1938C6.98913 15.9707 7.37407 15.5724 7.58038 15.0782C8.19195 13.6165 9.22195 12.3683 10.5409 11.4905C11.8599 10.6126 13.4089 10.1442 14.9933 10.1442C16.5777 10.1442 18.1267 10.6126 19.4457 11.4905C20.7647 12.3683 21.7947 13.6165 22.4062 15.0782C22.6125 15.5724 22.9975 15.9707 23.4844 16.1938C25.0238 16.9017 26.2781 18.1101 27.043 19.6221C27.8079 21.134 28.0382 22.8604 27.6966 24.5201C27.3549 26.1797 26.4613 27.6747 25.1614 28.7615C23.8615 29.8484 22.2318 30.463 20.5379 30.5053H20.5513Z" fill="#0BCF7D"/>
<path d="M48.96 32.448C47.0187 32.448 45.376 32 44.032 31.104C42.7093 30.208 41.9093 28.7893 41.632 26.848L44.032 26.304C44.2027 27.328 44.5227 28.1387 44.992 28.736C45.4613 29.312 46.0373 29.728 46.72 29.984C47.424 30.2187 48.1707 30.336 48.96 30.336C50.1333 30.336 51.0613 30.1013 51.744 29.632C52.4267 29.1627 52.768 28.5333 52.768 27.744C52.768 26.9333 52.4373 26.368 51.776 26.048C51.136 25.7067 50.2507 25.4293 49.12 25.216L47.808 24.992C46.8053 24.8213 45.888 24.5547 45.056 24.192C44.224 23.8293 43.5627 23.3387 43.072 22.72C42.5813 22.1013 42.336 21.3227 42.336 20.384C42.336 18.976 42.88 17.8773 43.968 17.088C45.056 16.2987 46.496 15.904 48.288 15.904C50.0587 15.904 51.488 16.3093 52.576 17.12C53.6853 17.9093 54.4 19.0293 54.72 20.48L52.352 21.088C52.16 19.9573 51.7013 19.168 50.976 18.72C50.2507 18.2507 49.3547 18.016 48.288 18.016C47.2213 18.016 46.3787 18.2187 45.76 18.624C45.1413 19.008 44.832 19.584 44.832 20.352C44.832 21.0987 45.12 21.6533 45.696 22.016C46.2933 22.3573 47.0827 22.6133 48.064 22.784L49.376 23.008C50.4853 23.2 51.4773 23.4667 52.352 23.808C53.248 24.128 53.952 24.5973 54.464 25.216C54.9973 25.8347 55.264 26.6453 55.264 27.648C55.264 29.184 54.688 30.368 53.536 31.2C52.4053 32.032 50.88 32.448 48.96 32.448ZM59.531 32V16.352H61.995V18.304H62.443C62.7417 17.7493 63.2323 17.2373 63.915 16.768C64.5977 16.2987 65.5577 16.064 66.795 16.064C68.011 16.064 68.9923 16.3307 69.739 16.864C70.507 17.3973 71.0617 18.048 71.403 18.816H71.851C72.2137 18.048 72.7577 17.3973 73.483 16.864C74.2297 16.3307 75.2643 16.064 76.587 16.064C77.6323 16.064 78.5497 16.2773 79.339 16.704C80.1283 17.1307 80.747 17.7493 81.195 18.56C81.6643 19.3493 81.899 20.2987 81.899 21.408V32H79.371V21.632C79.371 20.5867 79.0617 19.7653 78.443 19.168C77.8457 18.5493 77.003 18.24 75.915 18.24C74.763 18.24 73.8137 18.6133 73.067 19.36C72.3417 20.1067 71.979 21.184 71.979 22.592V32H69.451V21.632C69.451 20.5867 69.1417 19.7653 68.523 19.168C67.9257 18.5493 67.083 18.24 65.995 18.24C64.843 18.24 63.8937 18.6133 63.147 19.36C62.4217 20.1067 62.059 21.184 62.059 22.592V32H59.531ZM93.3663 32.448C91.4249 32.448 89.7823 32 88.4383 31.104C87.1156 30.208 86.3156 28.7893 86.0383 26.848L88.4383 26.304C88.6089 27.328 88.9289 28.1387 89.3983 28.736C89.8676 29.312 90.4436 29.728 91.1263 29.984C91.8303 30.2187 92.5769 30.336 93.3663 30.336C94.5396 30.336 95.4676 30.1013 96.1503 29.632C96.8329 29.1627 97.1743 28.5333 97.1743 27.744C97.1743 26.9333 96.8436 26.368 96.1823 26.048C95.5423 25.7067 94.6569 25.4293 93.5263 25.216L92.2143 24.992C91.2116 24.8213 90.2943 24.5547 89.4623 24.192C88.6303 23.8293 87.9689 23.3387 87.4783 22.72C86.9876 22.1013 86.7423 21.3227 86.7423 20.384C86.7423 18.976 87.2863 17.8773 88.3743 17.088C89.4623 16.2987 90.9023 15.904 92.6943 15.904C94.4649 15.904 95.8943 16.3093 96.9823 17.12C98.0916 17.9093 98.8063 19.0293 99.1263 20.48L96.7583 21.088C96.5663 19.9573 96.1076 19.168 95.3823 18.72C94.6569 18.2507 93.7609 18.016 92.6943 18.016C91.6276 18.016 90.7849 18.2187 90.1663 18.624C89.5476 19.008 89.2383 19.584 89.2383 20.352C89.2383 21.0987 89.5263 21.6533 90.1023 22.016C90.6996 22.3573 91.4889 22.6133 92.4703 22.784L93.7823 23.008C94.8916 23.2 95.8836 23.4667 96.7583 23.808C97.6543 24.128 98.3583 24.5973 98.8703 25.216C99.4036 25.8347 99.6703 26.6453 99.6703 27.648C99.6703 29.184 99.0943 30.368 97.9423 31.2C96.8116 32.032 95.2863 32.448 93.3663 32.448ZM103.809 24.928V22.592H113.281V24.928H103.809ZM123.385 32C122.489 32 121.795 31.7547 121.305 31.264C120.835 30.7733 120.601 30.1013 120.601 29.248V18.56H115.897V16.352H120.601V10.784H123.129V16.352H128.249V18.56H123.129V28.864C123.129 29.504 123.438 29.824 124.057 29.824H127.545V32H123.385ZM132.344 32V16.352H134.808V18.272H135.256C135.533 17.5893 135.96 17.088 136.536 16.768C137.112 16.448 137.869 16.288 138.808 16.288H140.664V18.592H138.648C137.517 18.592 136.6 18.912 135.896 19.552C135.213 20.1707 134.872 21.1413 134.872 22.464V32H132.344ZM151.012 32.448C149.433 32.448 148.046 32.1173 146.852 31.456C145.657 30.7733 144.729 29.824 144.068 28.608C143.406 27.392 143.076 25.984 143.076 24.384V24C143.076 22.3787 143.406 20.96 144.068 19.744C144.729 18.528 145.646 17.5893 146.82 16.928C147.993 16.2453 149.337 15.904 150.852 15.904C152.324 15.904 153.625 16.224 154.756 16.864C155.886 17.4827 156.772 18.3787 157.412 19.552C158.052 20.7253 158.372 22.1013 158.372 23.68V24.832H145.604C145.668 26.5173 146.212 27.84 147.236 28.8C148.26 29.7387 149.54 30.208 151.076 30.208C152.42 30.208 153.454 29.8987 154.18 29.28C154.905 28.6613 155.46 27.9253 155.844 27.072L158.02 28.128C157.7 28.7893 157.252 29.4507 156.676 30.112C156.121 30.7733 155.385 31.328 154.468 31.776C153.572 32.224 152.42 32.448 151.012 32.448ZM145.636 22.752H155.812C155.726 21.3013 155.225 20.1707 154.308 19.36C153.412 18.5493 152.26 18.144 150.852 18.144C149.422 18.144 148.249 18.5493 147.332 19.36C146.414 20.1707 145.849 21.3013 145.636 22.752ZM169.949 32.448C168.37 32.448 166.984 32.1173 165.789 31.456C164.594 30.7733 163.666 29.824 163.005 28.608C162.344 27.392 162.013 25.984 162.013 24.384V24C162.013 22.3787 162.344 20.96 163.005 19.744C163.666 18.528 164.584 17.5893 165.757 16.928C166.93 16.2453 168.274 15.904 169.789 15.904C171.261 15.904 172.562 16.224 173.693 16.864C174.824 17.4827 175.709 18.3787 176.349 19.552C176.989 20.7253 177.309 22.1013 177.309 23.68V24.832H164.541C164.605 26.5173 165.149 27.84 166.173 28.8C167.197 29.7387 168.477 30.208 170.013 30.208C171.357 30.208 172.392 29.8987 173.117 29.28C173.842 28.6613 174.397 27.9253 174.781 27.072L176.957 28.128C176.637 28.7893 176.189 29.4507 175.613 30.112C175.058 30.7733 174.322 31.328 173.405 31.776C172.509 32.224 171.357 32.448 169.949 32.448ZM164.573 22.752H174.749C174.664 21.3013 174.162 20.1707 173.245 19.36C172.349 18.5493 171.197 18.144 169.789 18.144C168.36 18.144 167.186 18.5493 166.269 19.36C165.352 20.1707 164.786 21.3013 164.573 22.752Z" fill="white"/>
</svg>
