<svg width="200" height="200" viewBox="0 0 200 200" fill="none" xmlns="http://www.w3.org/2000/svg">
<g clip-path="url(#clip0_329_8)">
<path d="M118.416 33.4207L152.517 37.8629C154.509 38.1225 156 39.82 156 41.8294V156.985C156 158.955 154.565 160.632 152.618 160.937L118.517 166.267C116.091 166.647 113.899 164.771 113.899 162.315V37.3872C113.899 34.9729 116.022 33.1088 118.416 33.4207Z" stroke="black" stroke-width="12"/>
<path d="M47.5113 56.7916L79.0358 52.9108C81.4207 52.6172 83.5245 54.4779 83.5245 56.8809V143.658C83.5245 146.04 81.4566 147.894 79.0894 147.635L47.5649 144.185C45.5363 143.963 44 142.25 44 140.209V60.7617C44 58.7415 45.5063 57.0384 47.5113 56.7916Z" stroke="black" stroke-width="12"/>
</g>
<defs>
<clipPath id="clip0_329_8">
<rect width="200" height="200" fill="white"/>
</clipPath>
</defs>
</svg>
